<svg xmlns="http://www.w3.org/2000/svg" xmlns:xlink="http://www.w3.org/1999/xlink" viewBox="0 0 800 800"><defs><linearGradient id="a" x1="70.42" y1="307.11" x2="464.36" y2="307.11" gradientUnits="userSpaceOnUse"><stop offset="0" stop-color="#811697"/><stop offset="1" stop-color="#360346"/></linearGradient><linearGradient id="b" x1="282.28" y1="212.92" x2="580.96" y2="212.92" gradientUnits="userSpaceOnUse"><stop offset="0" stop-color="#f912a9"/><stop offset="0.73" stop-color="#ff1432"/></linearGradient><linearGradient id="c" x1="255.81" y1="565.15" x2="579.85" y2="565.15" gradientUnits="userSpaceOnUse"><stop offset="0" stop-color="#03d6d4"/><stop offset="1" stop-color="#067b9f"/></linearGradient><linearGradient id="d" x1="85.57" y1="482.76" x2="521.28" y2="482.76" gradientUnits="userSpaceOnUse"><stop offset="0" stop-color="#ff0f10"/><stop offset="1" stop-color="#fd860a"/></linearGradient></defs><title>icon</title><path d="M400,797.5A397.6,397.6,0,0,1,245.28,33.74,397.6,397.6,0,0,1,554.72,766.26,394.94,394.94,0,0,1,400,797.5Z" style="fill:#fff"/><path d="M400,5A395.1,395.1,0,0,1,553.75,764,395.1,395.1,0,0,1,246.25,36,392.42,392.42,0,0,1,400,5m0-5C179.09,0,0,179.09,0,400S179.09,800,400,800,800,620.91,800,400,620.91,0,400,0Z" style="fill:#262c38"/><path d="M176,319.06c34.47-25.61,71.74-37.17,102.64-42.23a148,148,0,0,1,80.47-23.62c30.55,0,62,9.21,86.15,28.25,3.69,2.91,7.29,5.85,10.87,8.73,2.75,2.2,5.48,4.37,8.22,6.44-6.06-27.88-17.69-59.47-39.63-89-41.07-55.26-98.87-77.23-142.45-85.93q-13.18,3.63-25.85,8.45-8.81,3.36-17.33,7.23C139.57,182.93,70.42,283.39,70.42,400a288.33,288.33,0,0,0,15.15,92.52C89.48,449.69,106.12,371,176,319.06Z" style="fill:url(#a)"/><path d="M424.73,207.62c21.94,29.54,33.57,61.13,39.63,89,2.72,2.05,5.44,4,8.2,5.84,15,9.88,30.94,15.66,51.95,9.58C555,303.22,581,274.43,581,241.79c0-12.37-3.16-25.29-9.68-35.89-6.16-10-15.47-17.53-24.28-25.09a288.94,288.94,0,0,0-264.72-59.12C325.86,130.39,383.66,152.36,424.73,207.62Z" style="fill:url(#b)"/><path d="M528.37,489.21A69.12,69.12,0,0,0,508.84,486a66.29,66.29,0,0,0-31.67,7.3c-11.94,6.08-18.94,16.47-29.38,24.24a148.74,148.74,0,0,1-192-12.46c13.17,30.18,35.65,67.24,73.89,96,69.36,52.22,149.3,46.12,191.58,37.8A288.5,288.5,0,0,0,549,617.44q7.72-6.75,14.93-14a71.92,71.92,0,0,0,15.89-45.21C579.85,525.48,557.05,498.34,528.37,489.21Z" style="fill:url(#c)"/><path d="M329.7,601.05c-38.24-28.78-60.72-65.84-73.89-96a146.11,146.11,0,0,1,22.84-228.2c-30.9,5.06-68.17,16.62-102.64,42.23C106.12,371,89.48,449.69,85.57,492.52,124.14,606.58,232,688.69,359.12,688.69a287.09,287.09,0,0,0,162.16-49.84C479,647.17,399.06,653.27,329.7,601.05Z" style="fill:url(#d)"/><path d="M574.09,389.26v21.48H522.92v51.17H501.43V410.74H450.26V389.26h51.17V338.09h21.49v51.17Z" style="fill:#262c38"/><path d="M729.58,389.26v21.48H678.41v51.17H656.92V410.74H605.75V389.26h51.17V338.09h21.49v51.17Z" style="fill:#262c38"/></svg>